
<svg xmlns="http://www.w3.org/2000/svg" xmlns:xlink="http://www.w3.org/1999/xlink" width="1080" zoomAndPan="magnify" viewBox="0 0 810 809.999993" height="1080" preserveAspectRatio="xMidYMid meet" version="1.0"><defs><g/></defs><g fill="#000000" fill-opacity="1"><g transform="translate(271.389577, 374.202215)"><g><path d="M 0.25 -1.609375 C 0.726562 -1.234375 1.375 -1.046875 2.1875 -1.046875 C 3.039062 -1.046875 3.847656 -1.179688 4.609375 -1.453125 C 5.378906 -1.722656 6.097656 -2.082031 6.765625 -2.53125 C 7.429688 -2.976562 8.046875 -3.472656 8.609375 -4.015625 C 9.171875 -4.566406 9.671875 -5.117188 10.109375 -5.671875 C 10.554688 -6.222656 10.953125 -6.742188 11.296875 -7.234375 C 11.640625 -7.722656 11.914062 -8.132812 12.125 -8.46875 L 13.390625 -8.46875 C 13.179688 -8.101562 12.890625 -7.632812 12.515625 -7.0625 C 12.148438 -6.5 11.710938 -5.898438 11.203125 -5.265625 C 10.691406 -4.628906 10.117188 -3.988281 9.484375 -3.34375 C 8.847656 -2.707031 8.148438 -2.128906 7.390625 -1.609375 C 6.628906 -1.097656 5.816406 -0.675781 4.953125 -0.34375 C 4.085938 -0.0195312 3.171875 0.140625 2.203125 0.140625 C 1.773438 0.140625 1.359375 0.09375 0.953125 0 C 0.554688 -0.101562 0.171875 -0.265625 -0.203125 -0.484375 C -0.703125 0.742188 -1.191406 1.945312 -1.671875 3.125 C -2.148438 4.3125 -2.601562 5.429688 -3.03125 6.484375 C -3.457031 7.546875 -3.851562 8.523438 -4.21875 9.421875 C -4.582031 10.316406 -4.898438 11.09375 -5.171875 11.75 C -5.441406 12.40625 -5.65625 12.925781 -5.8125 13.3125 C -5.96875 13.695312 -6.050781 13.898438 -6.0625 13.921875 L -8.453125 12.734375 C -7.671875 10.921875 -6.972656 9.253906 -6.359375 7.734375 C -5.753906 6.222656 -5.1875 4.804688 -4.65625 3.484375 C -4.132812 2.171875 -3.644531 0.9375 -3.1875 -0.21875 C -2.726562 -1.375 -2.265625 -2.5 -1.796875 -3.59375 C -2.035156 -3.9375 -2.210938 -4.273438 -2.328125 -4.609375 C -2.441406 -4.941406 -2.515625 -5.210938 -2.546875 -5.421875 C -2.578125 -5.773438 -2.484375 -6.066406 -2.265625 -6.296875 C -2.046875 -6.535156 -1.757812 -6.65625 -1.40625 -6.65625 C -1.113281 -6.65625 -0.847656 -6.554688 -0.609375 -6.359375 C -0.160156 -7.453125 0.238281 -8.410156 0.59375 -9.234375 C 0.957031 -10.054688 1.257812 -10.75 1.5 -11.3125 C 1.769531 -11.957031 2.007812 -12.523438 2.21875 -13.015625 C 3.539062 -16.117188 4.765625 -18.800781 5.890625 -21.0625 C 7.015625 -23.320312 8.050781 -25.242188 9 -26.828125 C 9.957031 -28.410156 10.832031 -29.6875 11.625 -30.65625 C 12.414062 -31.632812 13.128906 -32.394531 13.765625 -32.9375 C 14.410156 -33.488281 14.988281 -33.859375 15.5 -34.046875 C 16.019531 -34.234375 16.484375 -34.328125 16.890625 -34.328125 C 17.554688 -34.328125 18.117188 -34.175781 18.578125 -33.875 C 19.046875 -33.582031 19.3125 -33.082031 19.375 -32.375 C 19.425781 -31.675781 19.296875 -30.796875 18.984375 -29.734375 C 18.679688 -28.679688 18.257812 -27.5625 17.71875 -26.375 C 17.1875 -25.1875 16.5625 -23.984375 15.84375 -22.765625 C 15.132812 -21.554688 14.410156 -20.445312 13.671875 -19.4375 C 12.265625 -17.53125 10.988281 -15.945312 9.84375 -14.6875 C 8.695312 -13.4375 7.691406 -12.421875 6.828125 -11.640625 C 5.972656 -10.867188 5.253906 -10.296875 4.671875 -9.921875 C 4.097656 -9.554688 3.675781 -9.304688 3.40625 -9.171875 Z M 17.953125 -32.03125 C 17.941406 -32.289062 17.882812 -32.515625 17.78125 -32.703125 C 17.6875 -32.890625 17.488281 -32.984375 17.1875 -32.984375 C 17.007812 -32.984375 16.773438 -32.941406 16.484375 -32.859375 C 16.191406 -32.773438 15.851562 -32.597656 15.46875 -32.328125 C 15.082031 -32.054688 14.644531 -31.65625 14.15625 -31.125 C 13.675781 -30.59375 13.132812 -29.878906 12.53125 -28.984375 C 11.9375 -28.097656 11.285156 -26.992188 10.578125 -25.671875 C 9.878906 -24.359375 9.128906 -22.769531 8.328125 -20.90625 C 7.796875 -19.726562 7.179688 -18.296875 6.484375 -16.609375 C 5.796875 -14.921875 5.035156 -13.09375 4.203125 -11.125 C 4.910156 -11.625 5.65625 -12.25 6.4375 -13 C 7.21875 -13.75 8.003906 -14.570312 8.796875 -15.46875 C 9.585938 -16.375 10.367188 -17.332031 11.140625 -18.34375 C 11.921875 -19.351562 12.65625 -20.378906 13.34375 -21.421875 C 14.039062 -22.472656 14.679688 -23.515625 15.265625 -24.546875 C 15.847656 -25.578125 16.347656 -26.554688 16.765625 -27.484375 C 17.179688 -28.410156 17.492188 -29.265625 17.703125 -30.046875 C 17.921875 -30.828125 18.003906 -31.488281 17.953125 -32.03125 Z M 17.953125 -32.03125 "/></g></g></g><g fill="#000000" fill-opacity="1"><g transform="translate(283.509902, 374.202215)"><g><path d="M 10.578125 -4.953125 C 9.878906 -4.128906 9.191406 -3.375 8.515625 -2.6875 C 7.835938 -2 7.160156 -1.410156 6.484375 -0.921875 C 5.804688 -0.429688 5.132812 -0.046875 4.46875 0.234375 C 3.800781 0.515625 3.128906 0.65625 2.453125 0.65625 C 1.878906 0.65625 1.359375 0.550781 0.890625 0.34375 C 0.429688 0.144531 0.0351562 -0.132812 -0.296875 -0.5 C -0.640625 -0.875 -0.898438 -1.328125 -1.078125 -1.859375 C -1.265625 -2.398438 -1.359375 -3.003906 -1.359375 -3.671875 C -1.359375 -4.722656 -1.128906 -5.800781 -0.671875 -6.90625 C -0.210938 -8.007812 0.367188 -9.082031 1.078125 -10.125 C 1.785156 -11.164062 2.566406 -12.15625 3.421875 -13.09375 C 4.273438 -14.039062 5.085938 -14.875 5.859375 -15.59375 L 6.828125 -14.921875 C 6.285156 -14.117188 5.675781 -13.207031 5 -12.1875 C 4.332031 -11.175781 3.695312 -10.128906 3.09375 -9.046875 C 2.5 -7.960938 1.992188 -6.878906 1.578125 -5.796875 C 1.171875 -4.710938 0.96875 -3.710938 0.96875 -2.796875 C 0.96875 -2.171875 1.085938 -1.640625 1.328125 -1.203125 C 1.566406 -0.765625 2.015625 -0.546875 2.671875 -0.546875 C 3.398438 -0.546875 4.195312 -0.832031 5.0625 -1.40625 C 5.9375 -1.976562 6.832031 -2.726562 7.75 -3.65625 C 8.664062 -4.582031 9.582031 -5.625 10.5 -6.78125 C 11.414062 -7.9375 12.28125 -9.101562 13.09375 -10.28125 C 13.914062 -11.46875 14.660156 -12.597656 15.328125 -13.671875 C 16.003906 -14.742188 16.554688 -15.660156 16.984375 -16.421875 L 18.640625 -15.59375 C 17.765625 -13.875 16.921875 -12.265625 16.109375 -10.765625 C 15.296875 -9.273438 14.578125 -7.9375 13.953125 -6.75 C 13.328125 -5.5625 12.828125 -4.53125 12.453125 -3.65625 C 12.078125 -2.78125 11.890625 -2.082031 11.890625 -1.5625 C 11.890625 -1.351562 11.9375 -1.179688 12.03125 -1.046875 C 12.125 -0.910156 12.269531 -0.84375 12.46875 -0.84375 C 13.03125 -0.820312 13.644531 -1.0625 14.3125 -1.5625 C 14.988281 -2.0625 15.671875 -2.691406 16.359375 -3.453125 C 17.046875 -4.210938 17.71875 -5.039062 18.375 -5.9375 C 19.039062 -6.832031 19.632812 -7.675781 20.15625 -8.46875 L 20.984375 -7.828125 C 20.890625 -7.679688 20.695312 -7.375 20.40625 -6.90625 C 20.125 -6.4375 19.769531 -5.894531 19.34375 -5.28125 C 18.914062 -4.675781 18.429688 -4.039062 17.890625 -3.375 C 17.347656 -2.71875 16.773438 -2.113281 16.171875 -1.5625 C 15.566406 -1.007812 14.9375 -0.550781 14.28125 -0.1875 C 13.632812 0.164062 12.992188 0.34375 12.359375 0.34375 C 11.960938 0.34375 11.609375 0.273438 11.296875 0.140625 C 10.984375 0.00390625 10.71875 -0.175781 10.5 -0.40625 C 10.289062 -0.632812 10.125 -0.898438 10 -1.203125 C 9.882812 -1.503906 9.828125 -1.820312 9.828125 -2.15625 C 9.828125 -2.550781 9.890625 -2.984375 10.015625 -3.453125 C 10.148438 -3.921875 10.335938 -4.421875 10.578125 -4.953125 Z M 10.578125 -4.953125 "/></g></g></g><g fill="#000000" fill-opacity="1"><g transform="translate(303.66505, 374.202215)"><g><path d="M 14.328125 -7.828125 C 14.097656 -7.492188 13.828125 -7.039062 13.515625 -6.46875 C 13.210938 -5.90625 12.851562 -5.296875 12.4375 -4.640625 C 12.03125 -3.984375 11.582031 -3.3125 11.09375 -2.625 C 10.601562 -1.945312 10.066406 -1.335938 9.484375 -0.796875 C 8.898438 -0.253906 8.265625 0.1875 7.578125 0.53125 C 6.898438 0.882812 6.175781 1.0625 5.40625 1.0625 C 4.976562 1.0625 4.578125 1 4.203125 0.875 C 3.828125 0.75 3.492188 0.546875 3.203125 0.265625 C 2.910156 -0.00390625 2.679688 -0.335938 2.515625 -0.734375 C 2.347656 -1.140625 2.265625 -1.613281 2.265625 -2.15625 C 2.265625 -2.894531 2.410156 -3.671875 2.703125 -4.484375 C 3.003906 -5.296875 3.351562 -6.078125 3.75 -6.828125 C 4.144531 -7.585938 4.535156 -8.28125 4.921875 -8.90625 C 5.316406 -9.539062 5.609375 -10.046875 5.796875 -10.421875 C 5.972656 -10.796875 6.0625 -11.117188 6.0625 -11.390625 C 6.0625 -11.585938 5.992188 -11.757812 5.859375 -11.90625 C 5.734375 -12.0625 5.578125 -12.210938 5.390625 -12.359375 C 5.203125 -12.503906 5.003906 -12.65625 4.796875 -12.8125 C 4.597656 -12.976562 4.429688 -13.171875 4.296875 -13.390625 C 3.910156 -12.785156 3.523438 -12.175781 3.140625 -11.5625 C 2.785156 -11.03125 2.40625 -10.429688 2 -9.765625 C 1.59375 -9.109375 1.195312 -8.460938 0.8125 -7.828125 L 0 -8.46875 L 4.859375 -16.078125 L 5.515625 -15.734375 C 5.484375 -15.640625 5.429688 -15.492188 5.359375 -15.296875 C 5.296875 -15.109375 5.265625 -14.898438 5.265625 -14.671875 C 5.265625 -14.503906 5.289062 -14.335938 5.34375 -14.171875 C 5.394531 -14.015625 5.503906 -13.867188 5.671875 -13.734375 C 6.273438 -13.191406 6.75 -12.769531 7.09375 -12.46875 C 7.445312 -12.175781 7.703125 -11.941406 7.859375 -11.765625 C 8.023438 -11.597656 8.125 -11.457031 8.15625 -11.34375 C 8.195312 -11.226562 8.21875 -11.082031 8.21875 -10.90625 C 8.21875 -10.71875 8.1875 -10.492188 8.125 -10.234375 C 8.0625 -9.984375 7.957031 -9.675781 7.8125 -9.3125 C 7.675781 -8.945312 7.484375 -8.515625 7.234375 -8.015625 C 6.984375 -7.523438 6.671875 -6.957031 6.296875 -6.3125 C 6.066406 -5.914062 5.84375 -5.515625 5.625 -5.109375 C 5.40625 -4.710938 5.207031 -4.3125 5.03125 -3.90625 C 4.851562 -3.5 4.710938 -3.085938 4.609375 -2.671875 C 4.503906 -2.265625 4.453125 -1.875 4.453125 -1.5 C 4.453125 -1.207031 4.492188 -0.972656 4.578125 -0.796875 C 4.660156 -0.628906 4.769531 -0.5 4.90625 -0.40625 C 5.039062 -0.3125 5.1875 -0.25 5.34375 -0.21875 C 5.5 -0.195312 5.65625 -0.1875 5.8125 -0.1875 C 6.3125 -0.1875 6.804688 -0.332031 7.296875 -0.625 C 7.785156 -0.914062 8.269531 -1.296875 8.75 -1.765625 C 9.226562 -2.234375 9.691406 -2.765625 10.140625 -3.359375 C 10.585938 -3.960938 11.015625 -4.570312 11.421875 -5.1875 C 11.828125 -5.8125 12.203125 -6.40625 12.546875 -6.96875 C 12.898438 -7.539062 13.210938 -8.039062 13.484375 -8.46875 Z M 14.328125 -7.828125 "/></g></g></g><g fill="#000000" fill-opacity="1"><g transform="translate(317.14721, 374.202215)"><g><path d="M 2.71875 -7.96875 C 3.507812 -9.0625 4.347656 -10.109375 5.234375 -11.109375 C 6.117188 -12.117188 7.015625 -13.015625 7.921875 -13.796875 C 8.828125 -14.578125 9.742188 -15.203125 10.671875 -15.671875 C 11.597656 -16.140625 12.5 -16.375 13.375 -16.375 C 13.914062 -16.375 14.359375 -16.289062 14.703125 -16.125 C 15.054688 -15.957031 15.332031 -15.742188 15.53125 -15.484375 C 15.738281 -15.222656 15.882812 -14.929688 15.96875 -14.609375 C 16.050781 -14.285156 16.09375 -13.960938 16.09375 -13.640625 C 16.09375 -13.191406 16.003906 -12.703125 15.828125 -12.171875 C 15.660156 -11.640625 15.398438 -11.101562 15.046875 -10.5625 C 14.691406 -10.03125 14.238281 -9.515625 13.6875 -9.015625 C 13.144531 -8.523438 12.492188 -8.085938 11.734375 -7.703125 C 11.898438 -7.304688 11.984375 -6.828125 11.984375 -6.265625 C 11.984375 -5.921875 11.9375 -5.566406 11.84375 -5.203125 C 11.757812 -4.847656 11.660156 -4.5 11.546875 -4.15625 C 11.441406 -3.8125 11.34375 -3.457031 11.25 -3.09375 C 11.164062 -2.738281 11.125 -2.378906 11.125 -2.015625 C 11.125 -1.835938 11.132812 -1.664062 11.15625 -1.5 C 11.175781 -1.332031 11.21875 -1.179688 11.28125 -1.046875 C 11.351562 -0.910156 11.460938 -0.800781 11.609375 -0.71875 C 11.753906 -0.632812 11.957031 -0.59375 12.21875 -0.59375 C 12.519531 -0.59375 12.863281 -0.71875 13.25 -0.96875 C 13.644531 -1.21875 14.0625 -1.546875 14.5 -1.953125 C 14.945312 -2.359375 15.398438 -2.828125 15.859375 -3.359375 C 16.316406 -3.898438 16.765625 -4.46875 17.203125 -5.0625 C 17.648438 -5.65625 18.078125 -6.242188 18.484375 -6.828125 C 18.890625 -7.410156 19.257812 -7.957031 19.59375 -8.46875 L 20.4375 -7.828125 C 19.664062 -6.679688 18.910156 -5.582031 18.171875 -4.53125 C 17.441406 -3.488281 16.707031 -2.570312 15.96875 -1.78125 C 15.238281 -1 14.492188 -0.375 13.734375 0.09375 C 12.972656 0.5625 12.191406 0.796875 11.390625 0.796875 C 11.078125 0.796875 10.75 0.75 10.40625 0.65625 C 10.070312 0.5625 9.765625 0.410156 9.484375 0.203125 C 9.203125 0.00390625 8.96875 -0.257812 8.78125 -0.59375 C 8.601562 -0.925781 8.515625 -1.332031 8.515625 -1.8125 C 8.515625 -2.382812 8.660156 -3.0625 8.953125 -3.84375 C 9.203125 -4.5625 9.382812 -5.164062 9.5 -5.65625 C 9.625 -6.15625 9.695312 -6.570312 9.71875 -6.90625 C 9.394531 -6.820312 9.054688 -6.75 8.703125 -6.6875 C 8.347656 -6.632812 8.015625 -6.609375 7.703125 -6.609375 C 7.535156 -6.609375 7.351562 -6.625 7.15625 -6.65625 C 6.957031 -6.695312 6.773438 -6.765625 6.609375 -6.859375 C 6.441406 -6.953125 6.300781 -7.066406 6.1875 -7.203125 C 6.070312 -7.347656 6.015625 -7.535156 6.015625 -7.765625 C 6.015625 -7.992188 6.085938 -8.207031 6.234375 -8.40625 C 6.378906 -8.613281 6.578125 -8.796875 6.828125 -8.953125 C 7.078125 -9.117188 7.375 -9.242188 7.71875 -9.328125 C 8.0625 -9.421875 8.445312 -9.46875 8.875 -9.46875 C 9.664062 -9.46875 10.34375 -9.253906 10.90625 -8.828125 C 11.445312 -9.253906 11.894531 -9.71875 12.25 -10.21875 C 12.601562 -10.71875 12.878906 -11.203125 13.078125 -11.671875 C 13.273438 -12.140625 13.410156 -12.554688 13.484375 -12.921875 C 13.554688 -13.296875 13.59375 -13.578125 13.59375 -13.765625 C 13.59375 -14.265625 13.503906 -14.609375 13.328125 -14.796875 C 13.148438 -14.984375 12.929688 -15.078125 12.671875 -15.078125 C 12.179688 -15.078125 11.640625 -14.914062 11.046875 -14.59375 C 10.453125 -14.28125 9.832031 -13.847656 9.1875 -13.296875 C 8.539062 -12.753906 7.878906 -12.128906 7.203125 -11.421875 C 6.535156 -10.710938 5.878906 -9.960938 5.234375 -9.171875 C 4.585938 -8.390625 3.960938 -7.59375 3.359375 -6.78125 C 2.765625 -5.976562 2.21875 -5.222656 1.71875 -4.515625 C 1.269531 -3.765625 0.867188 -3.0625 0.515625 -2.40625 C 0.160156 -1.757812 -0.132812 -1.195312 -0.375 -0.71875 C -0.625 -0.25 -0.816406 0.101562 -0.953125 0.34375 C -1.085938 0.582031 -1.164062 0.664062 -1.1875 0.59375 L -3.421875 0 C -1.640625 -4.070312 0.164062 -8.144531 2 -12.21875 C 3.832031 -16.289062 5.757812 -20.40625 7.78125 -24.5625 C 8.082031 -25.164062 8.425781 -25.828125 8.8125 -26.546875 C 9.207031 -27.265625 9.625 -27.984375 10.0625 -28.703125 C 10.507812 -29.429688 10.988281 -30.132812 11.5 -30.8125 C 12.007812 -31.488281 12.53125 -32.085938 13.0625 -32.609375 C 13.601562 -33.140625 14.148438 -33.554688 14.703125 -33.859375 C 15.265625 -34.171875 15.828125 -34.328125 16.390625 -34.328125 C 16.984375 -34.328125 17.460938 -34.160156 17.828125 -33.828125 C 18.203125 -33.492188 18.390625 -32.960938 18.390625 -32.234375 C 18.390625 -31.242188 18.117188 -30.03125 17.578125 -28.59375 C 17.046875 -27.164062 16.25 -25.648438 15.1875 -24.046875 C 14.125 -22.441406 12.800781 -20.816406 11.21875 -19.171875 C 9.644531 -17.535156 7.804688 -16.007812 5.703125 -14.59375 Z M 6.703125 -16.78125 C 8.535156 -18.195312 10.113281 -19.660156 11.4375 -21.171875 C 12.757812 -22.679688 13.847656 -24.128906 14.703125 -25.515625 C 15.554688 -26.910156 16.179688 -28.203125 16.578125 -29.390625 C 16.984375 -30.578125 17.1875 -31.570312 17.1875 -32.375 C 17.1875 -32.601562 17.125 -32.785156 17 -32.921875 C 16.882812 -33.054688 16.695312 -33.125 16.4375 -33.125 C 15.875 -33.125 15.296875 -32.847656 14.703125 -32.296875 C 14.117188 -31.742188 13.453125 -30.832031 12.703125 -29.5625 C 11.953125 -28.289062 11.09375 -26.609375 10.125 -24.515625 C 9.15625 -22.429688 8.015625 -19.851562 6.703125 -16.78125 Z M 9.609375 -7.921875 C 9.523438 -8.085938 9.394531 -8.234375 9.21875 -8.359375 C 9.050781 -8.492188 8.863281 -8.5625 8.65625 -8.5625 C 8.21875 -8.5625 7.832031 -8.46875 7.5 -8.28125 C 7.164062 -8.101562 7 -7.929688 7 -7.765625 C 7 -7.640625 7.066406 -7.554688 7.203125 -7.515625 C 7.347656 -7.484375 7.484375 -7.46875 7.609375 -7.46875 C 8.003906 -7.46875 8.367188 -7.515625 8.703125 -7.609375 C 9.035156 -7.703125 9.335938 -7.804688 9.609375 -7.921875 Z M 9.609375 -7.921875 "/></g></g></g><g fill="#000000" fill-opacity="1"><g transform="translate(336.734934, 374.202215)"><g><path d="M 18.046875 -15.09375 C 17.847656 -14.707031 17.570312 -14.191406 17.21875 -13.546875 C 16.863281 -12.910156 16.484375 -12.210938 16.078125 -11.453125 C 15.671875 -10.691406 15.257812 -9.894531 14.84375 -9.0625 C 14.425781 -8.226562 14.046875 -7.410156 13.703125 -6.609375 C 13.359375 -5.816406 13.078125 -5.066406 12.859375 -4.359375 C 12.640625 -3.660156 12.53125 -3.070312 12.53125 -2.59375 C 12.53125 -2.101562 12.625 -1.785156 12.8125 -1.640625 C 13 -1.503906 13.25 -1.4375 13.5625 -1.4375 C 14 -1.4375 14.445312 -1.5625 14.90625 -1.8125 C 15.363281 -2.070312 15.816406 -2.40625 16.265625 -2.8125 C 16.710938 -3.21875 17.144531 -3.675781 17.5625 -4.1875 C 17.988281 -4.707031 18.390625 -5.226562 18.765625 -5.75 C 19.140625 -6.28125 19.476562 -6.78125 19.78125 -7.25 C 20.082031 -7.726562 20.335938 -8.132812 20.546875 -8.46875 L 21.359375 -7.828125 C 21.109375 -7.347656 20.804688 -6.828125 20.453125 -6.265625 C 20.109375 -5.703125 19.726562 -5.132812 19.3125 -4.5625 C 18.894531 -4 18.441406 -3.453125 17.953125 -2.921875 C 17.472656 -2.398438 16.960938 -1.929688 16.421875 -1.515625 C 15.890625 -1.109375 15.328125 -0.785156 14.734375 -0.546875 C 14.140625 -0.304688 13.535156 -0.1875 12.921875 -0.1875 C 12.015625 -0.1875 11.347656 -0.457031 10.921875 -1 C 10.492188 -1.539062 10.28125 -2.242188 10.28125 -3.109375 C 10.28125 -3.171875 10.285156 -3.300781 10.296875 -3.5 C 10.304688 -3.707031 10.328125 -3.875 10.359375 -4 C 9.597656 -3.039062 8.875 -2.25 8.1875 -1.625 C 7.5 -1.007812 6.832031 -0.519531 6.1875 -0.15625 C 5.539062 0.207031 4.914062 0.457031 4.3125 0.59375 C 3.71875 0.738281 3.148438 0.8125 2.609375 0.8125 C 2.035156 0.8125 1.492188 0.71875 0.984375 0.53125 C 0.484375 0.34375 0.0390625 0.0664062 -0.34375 -0.296875 C -0.738281 -0.660156 -1.046875 -1.101562 -1.265625 -1.625 C -1.484375 -2.15625 -1.59375 -2.769531 -1.59375 -3.46875 C -1.59375 -4.332031 -1.398438 -5.320312 -1.015625 -6.4375 C -0.628906 -7.550781 0.0546875 -8.75 1.046875 -10.03125 C 1.878906 -11.132812 2.742188 -12.066406 3.640625 -12.828125 C 4.546875 -13.585938 5.429688 -14.195312 6.296875 -14.65625 C 7.171875 -15.113281 8 -15.441406 8.78125 -15.640625 C 9.570312 -15.835938 10.28125 -15.9375 10.90625 -15.9375 C 12.289062 -15.9375 13.335938 -15.703125 14.046875 -15.234375 C 14.765625 -14.773438 15.195312 -14.070312 15.34375 -13.125 C 15.644531 -13.5 15.960938 -13.875 16.296875 -14.25 C 16.628906 -14.632812 16.972656 -15.023438 17.328125 -15.421875 Z M 11.078125 -6.46875 C 11.273438 -6.789062 11.515625 -7.195312 11.796875 -7.6875 C 12.085938 -8.175781 12.390625 -8.679688 12.703125 -9.203125 C 13.023438 -9.722656 13.335938 -10.222656 13.640625 -10.703125 C 13.941406 -11.191406 14.207031 -11.601562 14.4375 -11.9375 C 14.4375 -12.070312 14.414062 -12.289062 14.375 -12.59375 C 14.34375 -12.90625 14.242188 -13.210938 14.078125 -13.515625 C 13.910156 -13.828125 13.644531 -14.097656 13.28125 -14.328125 C 12.914062 -14.554688 12.410156 -14.671875 11.765625 -14.671875 C 11.296875 -14.671875 10.769531 -14.597656 10.1875 -14.453125 C 9.601562 -14.304688 8.976562 -14.0625 8.3125 -13.71875 C 7.65625 -13.382812 6.976562 -12.9375 6.28125 -12.375 C 5.59375 -11.8125 4.898438 -11.113281 4.203125 -10.28125 C 3.160156 -9.03125 2.351562 -7.769531 1.78125 -6.5 C 1.21875 -5.238281 0.9375 -4.101562 0.9375 -3.09375 C 0.9375 -2.226562 1.128906 -1.5625 1.515625 -1.09375 C 1.910156 -0.625 2.472656 -0.390625 3.203125 -0.390625 C 4.035156 -0.390625 4.8125 -0.570312 5.53125 -0.9375 C 6.257812 -1.3125 6.941406 -1.789062 7.578125 -2.375 C 8.210938 -2.96875 8.816406 -3.625 9.390625 -4.34375 C 9.972656 -5.0625 10.535156 -5.769531 11.078125 -6.46875 Z M 11.078125 -6.46875 "/></g></g></g><g fill="#000000" fill-opacity="1"><g transform="translate(357.275941, 374.202215)"><g><path d="M 18.953125 -11.78125 C 18.953125 -11.132812 18.835938 -10.472656 18.609375 -9.796875 C 18.390625 -9.117188 18.101562 -8.441406 17.75 -7.765625 C 17.40625 -7.097656 17.035156 -6.4375 16.640625 -5.78125 C 16.242188 -5.132812 15.875 -4.507812 15.53125 -3.90625 C 15.1875 -3.300781 14.898438 -2.722656 14.671875 -2.171875 C 14.441406 -1.617188 14.328125 -1.113281 14.328125 -0.65625 C 14.328125 -0.3125 14.398438 -0.078125 14.546875 0.046875 C 14.703125 0.171875 14.867188 0.234375 15.046875 0.234375 C 15.628906 0.234375 16.273438 -0.046875 16.984375 -0.609375 C 17.691406 -1.179688 18.410156 -1.898438 19.140625 -2.765625 C 19.878906 -3.628906 20.613281 -4.566406 21.34375 -5.578125 C 22.070312 -6.597656 22.726562 -7.5625 23.3125 -8.46875 L 24.140625 -7.828125 C 24.015625 -7.648438 23.789062 -7.289062 23.46875 -6.75 C 23.15625 -6.21875 22.765625 -5.601562 22.296875 -4.90625 C 21.828125 -4.21875 21.300781 -3.5 20.71875 -2.75 C 20.132812 -2.007812 19.507812 -1.320312 18.84375 -0.6875 C 18.175781 -0.0625 17.488281 0.453125 16.78125 0.859375 C 16.082031 1.265625 15.378906 1.46875 14.671875 1.46875 C 14.253906 1.46875 13.878906 1.398438 13.546875 1.265625 C 13.222656 1.128906 12.941406 0.941406 12.703125 0.703125 C 12.472656 0.460938 12.285156 0.179688 12.140625 -0.140625 C 12.003906 -0.472656 11.9375 -0.820312 11.9375 -1.1875 C 11.9375 -1.769531 12.066406 -2.40625 12.328125 -3.09375 C 12.597656 -3.78125 12.929688 -4.488281 13.328125 -5.21875 C 13.722656 -5.945312 14.15625 -6.675781 14.625 -7.40625 C 15.09375 -8.144531 15.519531 -8.847656 15.90625 -9.515625 C 16.300781 -10.179688 16.628906 -10.796875 16.890625 -11.359375 C 17.160156 -11.929688 17.296875 -12.421875 17.296875 -12.828125 C 17.296875 -13.296875 17.171875 -13.6875 16.921875 -14 C 16.671875 -14.320312 16.320312 -14.484375 15.875 -14.484375 C 15.382812 -14.484375 14.820312 -14.28125 14.1875 -13.875 C 13.550781 -13.476562 12.835938 -12.894531 12.046875 -12.125 C 11.265625 -11.351562 10.40625 -10.398438 9.46875 -9.265625 C 8.539062 -8.140625 7.535156 -6.859375 6.453125 -5.421875 C 5.828125 -4.585938 5.21875 -3.785156 4.625 -3.015625 C 4.375 -2.679688 4.117188 -2.335938 3.859375 -1.984375 C 3.597656 -1.640625 3.335938 -1.296875 3.078125 -0.953125 C 2.828125 -0.617188 2.585938 -0.296875 2.359375 0.015625 C 2.128906 0.328125 1.925781 0.59375 1.75 0.8125 L -0.25 0 L 2.40625 -3.65625 C 2.78125 -4.164062 3.164062 -4.71875 3.5625 -5.3125 C 3.957031 -5.90625 4.347656 -6.515625 4.734375 -7.140625 C 5.117188 -7.765625 5.484375 -8.394531 5.828125 -9.03125 C 6.179688 -9.664062 6.507812 -10.289062 6.8125 -10.90625 C 7.25 -11.8125 7.550781 -12.5625 7.71875 -13.15625 C 7.882812 -13.75 7.96875 -14.226562 7.96875 -14.59375 C 7.96875 -15.007812 7.890625 -15.28125 7.734375 -15.40625 C 7.585938 -15.53125 7.378906 -15.59375 7.109375 -15.59375 C 6.816406 -15.59375 6.484375 -15.445312 6.109375 -15.15625 C 5.742188 -14.863281 5.363281 -14.484375 4.96875 -14.015625 C 4.570312 -13.554688 4.171875 -13.035156 3.765625 -12.453125 C 3.367188 -11.867188 2.988281 -11.289062 2.625 -10.71875 C 2.269531 -10.144531 1.929688 -9.597656 1.609375 -9.078125 C 1.296875 -8.566406 1.03125 -8.148438 0.8125 -7.828125 L 0 -8.46875 C 0.769531 -9.675781 1.46875 -10.785156 2.09375 -11.796875 C 2.726562 -12.804688 3.335938 -13.671875 3.921875 -14.390625 C 4.503906 -15.117188 5.070312 -15.679688 5.625 -16.078125 C 6.175781 -16.484375 6.757812 -16.6875 7.375 -16.6875 C 7.707031 -16.6875 8.03125 -16.617188 8.34375 -16.484375 C 8.65625 -16.347656 8.925781 -16.144531 9.15625 -15.875 C 9.394531 -15.613281 9.582031 -15.289062 9.71875 -14.90625 C 9.851562 -14.53125 9.921875 -14.09375 9.921875 -13.59375 C 9.921875 -13.207031 9.875 -12.800781 9.78125 -12.375 C 10.445312 -13.019531 11.066406 -13.554688 11.640625 -13.984375 C 12.222656 -14.410156 12.753906 -14.75 13.234375 -15 C 13.722656 -15.25 14.171875 -15.425781 14.578125 -15.53125 C 14.984375 -15.632812 15.351562 -15.6875 15.6875 -15.6875 C 15.976562 -15.6875 16.3125 -15.632812 16.6875 -15.53125 C 17.0625 -15.425781 17.414062 -15.226562 17.75 -14.9375 C 18.082031 -14.65625 18.363281 -14.257812 18.59375 -13.75 C 18.832031 -13.238281 18.953125 -12.582031 18.953125 -11.78125 Z M 18.953125 -11.78125 "/></g></g></g><g fill="#000000" fill-opacity="1"><g transform="translate(380.586012, 374.202215)"><g/></g></g><g fill="#000000" fill-opacity="1"><g transform="translate(394.204355, 374.202215)"><g><path d="M 18.046875 -15.09375 C 17.847656 -14.707031 17.570312 -14.191406 17.21875 -13.546875 C 16.863281 -12.910156 16.484375 -12.210938 16.078125 -11.453125 C 15.671875 -10.691406 15.257812 -9.894531 14.84375 -9.0625 C 14.425781 -8.226562 14.046875 -7.410156 13.703125 -6.609375 C 13.359375 -5.816406 13.078125 -5.066406 12.859375 -4.359375 C 12.640625 -3.660156 12.53125 -3.070312 12.53125 -2.59375 C 12.53125 -2.101562 12.625 -1.785156 12.8125 -1.640625 C 13 -1.503906 13.25 -1.4375 13.5625 -1.4375 C 14 -1.4375 14.445312 -1.5625 14.90625 -1.8125 C 15.363281 -2.070312 15.816406 -2.40625 16.265625 -2.8125 C 16.710938 -3.21875 17.144531 -3.675781 17.5625 -4.1875 C 17.988281 -4.707031 18.390625 -5.226562 18.765625 -5.75 C 19.140625 -6.28125 19.476562 -6.78125 19.78125 -7.25 C 20.082031 -7.726562 20.335938 -8.132812 20.546875 -8.46875 L 21.359375 -7.828125 C 21.109375 -7.347656 20.804688 -6.828125 20.453125 -6.265625 C 20.109375 -5.703125 19.726562 -5.132812 19.3125 -4.5625 C 18.894531 -4 18.441406 -3.453125 17.953125 -2.921875 C 17.472656 -2.398438 16.960938 -1.929688 16.421875 -1.515625 C 15.890625 -1.109375 15.328125 -0.785156 14.734375 -0.546875 C 14.140625 -0.304688 13.535156 -0.1875 12.921875 -0.1875 C 12.015625 -0.1875 11.347656 -0.457031 10.921875 -1 C 10.492188 -1.539062 10.28125 -2.242188 10.28125 -3.109375 C 10.28125 -3.171875 10.285156 -3.300781 10.296875 -3.5 C 10.304688 -3.707031 10.328125 -3.875 10.359375 -4 C 9.597656 -3.039062 8.875 -2.25 8.1875 -1.625 C 7.5 -1.007812 6.832031 -0.519531 6.1875 -0.15625 C 5.539062 0.207031 4.914062 0.457031 4.3125 0.59375 C 3.71875 0.738281 3.148438 0.8125 2.609375 0.8125 C 2.035156 0.8125 1.492188 0.71875 0.984375 0.53125 C 0.484375 0.34375 0.0390625 0.0664062 -0.34375 -0.296875 C -0.738281 -0.660156 -1.046875 -1.101562 -1.265625 -1.625 C -1.484375 -2.15625 -1.59375 -2.769531 -1.59375 -3.46875 C -1.59375 -4.332031 -1.398438 -5.320312 -1.015625 -6.4375 C -0.628906 -7.550781 0.0546875 -8.75 1.046875 -10.03125 C 1.878906 -11.132812 2.742188 -12.066406 3.640625 -12.828125 C 4.546875 -13.585938 5.429688 -14.195312 6.296875 -14.65625 C 7.171875 -15.113281 8 -15.441406 8.78125 -15.640625 C 9.570312 -15.835938 10.28125 -15.9375 10.90625 -15.9375 C 12.289062 -15.9375 13.335938 -15.703125 14.046875 -15.234375 C 14.765625 -14.773438 15.195312 -14.070312 15.34375 -13.125 C 15.644531 -13.5 15.960938 -13.875 16.296875 -14.25 C 16.628906 -14.632812 16.972656 -15.023438 17.328125 -15.421875 Z M 11.078125 -6.46875 C 11.273438 -6.789062 11.515625 -7.195312 11.796875 -7.6875 C 12.085938 -8.175781 12.390625 -8.679688 12.703125 -9.203125 C 13.023438 -9.722656 13.335938 -10.222656 13.640625 -10.703125 C 13.941406 -11.191406 14.207031 -11.601562 14.4375 -11.9375 C 14.4375 -12.070312 14.414062 -12.289062 14.375 -12.59375 C 14.34375 -12.90625 14.242188 -13.210938 14.078125 -13.515625 C 13.910156 -13.828125 13.644531 -14.097656 13.28125 -14.328125 C 12.914062 -14.554688 12.410156 -14.671875 11.765625 -14.671875 C 11.296875 -14.671875 10.769531 -14.597656 10.1875 -14.453125 C 9.601562 -14.304688 8.976562 -14.0625 8.3125 -13.71875 C 7.65625 -13.382812 6.976562 -12.9375 6.28125 -12.375 C 5.59375 -11.8125 4.898438 -11.113281 4.203125 -10.28125 C 3.160156 -9.03125 2.351562 -7.769531 1.78125 -6.5 C 1.21875 -5.238281 0.9375 -4.101562 0.9375 -3.09375 C 0.9375 -2.226562 1.128906 -1.5625 1.515625 -1.09375 C 1.910156 -0.625 2.472656 -0.390625 3.203125 -0.390625 C 4.035156 -0.390625 4.8125 -0.570312 5.53125 -0.9375 C 6.257812 -1.3125 6.941406 -1.789062 7.578125 -2.375 C 8.210938 -2.96875 8.816406 -3.625 9.390625 -4.34375 C 9.972656 -5.0625 10.535156 -5.769531 11.078125 -6.46875 Z M 11.078125 -6.46875 "/></g></g></g><g fill="#000000" fill-opacity="1"><g transform="translate(414.745362, 374.202215)"><g><path d="M 2.71875 -7.96875 C 3.507812 -9.0625 4.347656 -10.109375 5.234375 -11.109375 C 6.117188 -12.117188 7.015625 -13.015625 7.921875 -13.796875 C 8.828125 -14.578125 9.742188 -15.203125 10.671875 -15.671875 C 11.597656 -16.140625 12.5 -16.375 13.375 -16.375 C 13.914062 -16.375 14.359375 -16.289062 14.703125 -16.125 C 15.054688 -15.957031 15.332031 -15.742188 15.53125 -15.484375 C 15.738281 -15.222656 15.882812 -14.929688 15.96875 -14.609375 C 16.050781 -14.285156 16.09375 -13.960938 16.09375 -13.640625 C 16.09375 -13.191406 16.003906 -12.703125 15.828125 -12.171875 C 15.660156 -11.640625 15.398438 -11.101562 15.046875 -10.5625 C 14.691406 -10.03125 14.238281 -9.515625 13.6875 -9.015625 C 13.144531 -8.523438 12.492188 -8.085938 11.734375 -7.703125 C 11.898438 -7.304688 11.984375 -6.828125 11.984375 -6.265625 C 11.984375 -5.921875 11.9375 -5.566406 11.84375 -5.203125 C 11.757812 -4.847656 11.660156 -4.5 11.546875 -4.15625 C 11.441406 -3.8125 11.34375 -3.457031 11.25 -3.09375 C 11.164062 -2.738281 11.125 -2.378906 11.125 -2.015625 C 11.125 -1.835938 11.132812 -1.664062 11.15625 -1.5 C 11.175781 -1.332031 11.21875 -1.179688 11.28125 -1.046875 C 11.351562 -0.910156 11.460938 -0.800781 11.609375 -0.71875 C 11.753906 -0.632812 11.957031 -0.59375 12.21875 -0.59375 C 12.519531 -0.59375 12.863281 -0.71875 13.25 -0.96875 C 13.644531 -1.21875 14.0625 -1.546875 14.5 -1.953125 C 14.945312 -2.359375 15.398438 -2.828125 15.859375 -3.359375 C 16.316406 -3.898438 16.765625 -4.46875 17.203125 -5.0625 C 17.648438 -5.65625 18.078125 -6.242188 18.484375 -6.828125 C 18.890625 -7.410156 19.257812 -7.957031 19.59375 -8.46875 L 20.4375 -7.828125 C 19.664062 -6.679688 18.910156 -5.582031 18.171875 -4.53125 C 17.441406 -3.488281 16.707031 -2.570312 15.96875 -1.78125 C 15.238281 -1 14.492188 -0.375 13.734375 0.09375 C 12.972656 0.5625 12.191406 0.796875 11.390625 0.796875 C 11.078125 0.796875 10.75 0.75 10.40625 0.65625 C 10.070312 0.5625 9.765625 0.410156 9.484375 0.203125 C 9.203125 0.00390625 8.96875 -0.257812 8.78125 -0.59375 C 8.601562 -0.925781 8.515625 -1.332031 8.515625 -1.8125 C 8.515625 -2.382812 8.660156 -3.0625 8.953125 -3.84375 C 9.203125 -4.5625 9.382812 -5.164062 9.5 -5.65625 C 9.625 -6.15625 9.695312 -6.570312 9.71875 -6.90625 C 9.394531 -6.820312 9.054688 -6.75 8.703125 -6.6875 C 8.347656 -6.632812 8.015625 -6.609375 7.703125 -6.609375 C 7.535156 -6.609375 7.351562 -6.625 7.15625 -6.65625 C 6.957031 -6.695312 6.773438 -6.765625 6.609375 -6.859375 C 6.441406 -6.953125 6.300781 -7.066406 6.1875 -7.203125 C 6.070312 -7.347656 6.015625 -7.535156 6.015625 -7.765625 C 6.015625 -7.992188 6.085938 -8.207031 6.234375 -8.40625 C 6.378906 -8.613281 6.578125 -8.796875 6.828125 -8.953125 C 7.078125 -9.117188 7.375 -9.242188 7.71875 -9.328125 C 8.0625 -9.421875 8.445312 -9.46875 8.875 -9.46875 C 9.664062 -9.46875 10.34375 -9.253906 10.90625 -8.828125 C 11.445312 -9.253906 11.894531 -9.71875 12.25 -10.21875 C 12.601562 -10.71875 12.878906 -11.203125 13.078125 -11.671875 C 13.273438 -12.140625 13.410156 -12.554688 13.484375 -12.921875 C 13.554688 -13.296875 13.59375 -13.578125 13.59375 -13.765625 C 13.59375 -14.265625 13.503906 -14.609375 13.328125 -14.796875 C 13.148438 -14.984375 12.929688 -15.078125 12.671875 -15.078125 C 12.179688 -15.078125 11.640625 -14.914062 11.046875 -14.59375 C 10.453125 -14.28125 9.832031 -13.847656 9.1875 -13.296875 C 8.539062 -12.753906 7.878906 -12.128906 7.203125 -11.421875 C 6.535156 -10.710938 5.878906 -9.960938 5.234375 -9.171875 C 4.585938 -8.390625 3.960938 -7.59375 3.359375 -6.78125 C 2.765625 -5.976562 2.21875 -5.222656 1.71875 -4.515625 C 1.269531 -3.765625 0.867188 -3.0625 0.515625 -2.40625 C 0.160156 -1.757812 -0.132812 -1.195312 -0.375 -0.71875 C -0.625 -0.25 -0.816406 0.101562 -0.953125 0.34375 C -1.085938 0.582031 -1.164062 0.664062 -1.1875 0.59375 L -3.421875 0 C -1.640625 -4.070312 0.164062 -8.144531 2 -12.21875 C 3.832031 -16.289062 5.757812 -20.40625 7.78125 -24.5625 C 8.082031 -25.164062 8.425781 -25.828125 8.8125 -26.546875 C 9.207031 -27.265625 9.625 -27.984375 10.0625 -28.703125 C 10.507812 -29.429688 10.988281 -30.132812 11.5 -30.8125 C 12.007812 -31.488281 12.53125 -32.085938 13.0625 -32.609375 C 13.601562 -33.140625 14.148438 -33.554688 14.703125 -33.859375 C 15.265625 -34.171875 15.828125 -34.328125 16.390625 -34.328125 C 16.984375 -34.328125 17.460938 -34.160156 17.828125 -33.828125 C 18.203125 -33.492188 18.390625 -32.960938 18.390625 -32.234375 C 18.390625 -31.242188 18.117188 -30.03125 17.578125 -28.59375 C 17.046875 -27.164062 16.25 -25.648438 15.1875 -24.046875 C 14.125 -22.441406 12.800781 -20.816406 11.21875 -19.171875 C 9.644531 -17.535156 7.804688 -16.007812 5.703125 -14.59375 Z M 6.703125 -16.78125 C 8.535156 -18.195312 10.113281 -19.660156 11.4375 -21.171875 C 12.757812 -22.679688 13.847656 -24.128906 14.703125 -25.515625 C 15.554688 -26.910156 16.179688 -28.203125 16.578125 -29.390625 C 16.984375 -30.578125 17.1875 -31.570312 17.1875 -32.375 C 17.1875 -32.601562 17.125 -32.785156 17 -32.921875 C 16.882812 -33.054688 16.695312 -33.125 16.4375 -33.125 C 15.875 -33.125 15.296875 -32.847656 14.703125 -32.296875 C 14.117188 -31.742188 13.453125 -30.832031 12.703125 -29.5625 C 11.953125 -28.289062 11.09375 -26.609375 10.125 -24.515625 C 9.15625 -22.429688 8.015625 -19.851562 6.703125 -16.78125 Z M 9.609375 -7.921875 C 9.523438 -8.085938 9.394531 -8.234375 9.21875 -8.359375 C 9.050781 -8.492188 8.863281 -8.5625 8.65625 -8.5625 C 8.21875 -8.5625 7.832031 -8.46875 7.5 -8.28125 C 7.164062 -8.101562 7 -7.929688 7 -7.765625 C 7 -7.640625 7.066406 -7.554688 7.203125 -7.515625 C 7.347656 -7.484375 7.484375 -7.46875 7.609375 -7.46875 C 8.003906 -7.46875 8.367188 -7.515625 8.703125 -7.609375 C 9.035156 -7.703125 9.335938 -7.804688 9.609375 -7.921875 Z M 9.609375 -7.921875 "/></g></g></g><g fill="#000000" fill-opacity="1"><g transform="translate(434.333086, 374.202215)"><g><path d="M 10.1875 -20.140625 C 10.1875 -19.835938 10.109375 -19.519531 9.953125 -19.1875 C 9.804688 -18.863281 9.613281 -18.570312 9.375 -18.3125 C 9.144531 -18.0625 8.882812 -17.851562 8.59375 -17.6875 C 8.3125 -17.519531 8.03125 -17.4375 7.75 -17.4375 C 7.488281 -17.4375 7.289062 -17.53125 7.15625 -17.71875 C 7.019531 -17.90625 6.953125 -18.132812 6.953125 -18.40625 C 6.953125 -18.65625 6.992188 -18.945312 7.078125 -19.28125 C 7.171875 -19.613281 7.304688 -19.925781 7.484375 -20.21875 C 7.671875 -20.507812 7.890625 -20.757812 8.140625 -20.96875 C 8.398438 -21.1875 8.695312 -21.296875 9.03125 -21.296875 C 9.351562 -21.296875 9.625 -21.175781 9.84375 -20.9375 C 10.070312 -20.695312 10.1875 -20.429688 10.1875 -20.140625 Z M 5.953125 -15.09375 C 5.753906 -14.707031 5.476562 -14.191406 5.125 -13.546875 C 4.769531 -12.898438 4.382812 -12.191406 3.96875 -11.421875 C 3.5625 -10.660156 3.144531 -9.859375 2.71875 -9.015625 C 2.300781 -8.179688 1.921875 -7.363281 1.578125 -6.5625 C 1.234375 -5.769531 0.957031 -5.023438 0.75 -4.328125 C 0.539062 -3.640625 0.4375 -3.050781 0.4375 -2.5625 C 0.4375 -2.125 0.523438 -1.828125 0.703125 -1.671875 C 0.878906 -1.515625 1.132812 -1.4375 1.46875 -1.4375 C 2.09375 -1.4375 2.695312 -1.640625 3.28125 -2.046875 C 3.875 -2.453125 4.460938 -2.984375 5.046875 -3.640625 C 5.628906 -4.296875 6.203125 -5.046875 6.765625 -5.890625 C 7.328125 -6.742188 7.890625 -7.601562 8.453125 -8.46875 L 9.265625 -7.828125 C 8.828125 -7.046875 8.332031 -6.207031 7.78125 -5.3125 C 7.226562 -4.414062 6.609375 -3.585938 5.921875 -2.828125 C 5.242188 -2.066406 4.492188 -1.4375 3.671875 -0.9375 C 2.859375 -0.4375 1.96875 -0.1875 1 -0.1875 C 0.09375 -0.1875 -0.597656 -0.457031 -1.078125 -1 C -1.566406 -1.539062 -1.8125 -2.242188 -1.8125 -3.109375 C -1.8125 -4.117188 -1.578125 -5.175781 -1.109375 -6.28125 C -0.640625 -7.394531 -0.0546875 -8.488281 0.640625 -9.5625 C 1.347656 -10.644531 2.113281 -11.6875 2.9375 -12.6875 C 3.757812 -13.6875 4.519531 -14.597656 5.21875 -15.421875 Z M 5.953125 -15.09375 "/></g></g></g><g fill="#000000" fill-opacity="1"><g transform="translate(442.776459, 374.202215)"><g><path d="M 0.25 -1.609375 C 0.726562 -1.234375 1.375 -1.046875 2.1875 -1.046875 C 3.039062 -1.046875 3.847656 -1.179688 4.609375 -1.453125 C 5.378906 -1.722656 6.097656 -2.082031 6.765625 -2.53125 C 7.429688 -2.976562 8.046875 -3.472656 8.609375 -4.015625 C 9.171875 -4.566406 9.671875 -5.117188 10.109375 -5.671875 C 10.554688 -6.222656 10.953125 -6.742188 11.296875 -7.234375 C 11.640625 -7.722656 11.914062 -8.132812 12.125 -8.46875 L 13.390625 -8.46875 C 13.179688 -8.101562 12.890625 -7.632812 12.515625 -7.0625 C 12.148438 -6.5 11.710938 -5.898438 11.203125 -5.265625 C 10.691406 -4.628906 10.117188 -3.988281 9.484375 -3.34375 C 8.847656 -2.707031 8.148438 -2.128906 7.390625 -1.609375 C 6.628906 -1.097656 5.816406 -0.675781 4.953125 -0.34375 C 4.085938 -0.0195312 3.171875 0.140625 2.203125 0.140625 C 1.773438 0.140625 1.359375 0.09375 0.953125 0 C 0.554688 -0.101562 0.171875 -0.265625 -0.203125 -0.484375 C -0.703125 0.742188 -1.191406 1.945312 -1.671875 3.125 C -2.148438 4.3125 -2.601562 5.429688 -3.03125 6.484375 C -3.457031 7.546875 -3.851562 8.523438 -4.21875 9.421875 C -4.582031 10.316406 -4.898438 11.09375 -5.171875 11.75 C -5.441406 12.40625 -5.65625 12.925781 -5.8125 13.3125 C -5.96875 13.695312 -6.050781 13.898438 -6.0625 13.921875 L -8.453125 12.734375 C -7.671875 10.921875 -6.972656 9.253906 -6.359375 7.734375 C -5.753906 6.222656 -5.1875 4.804688 -4.65625 3.484375 C -4.132812 2.171875 -3.644531 0.9375 -3.1875 -0.21875 C -2.726562 -1.375 -2.265625 -2.5 -1.796875 -3.59375 C -2.035156 -3.9375 -2.210938 -4.273438 -2.328125 -4.609375 C -2.441406 -4.941406 -2.515625 -5.210938 -2.546875 -5.421875 C -2.578125 -5.773438 -2.484375 -6.066406 -2.265625 -6.296875 C -2.046875 -6.535156 -1.757812 -6.65625 -1.40625 -6.65625 C -1.113281 -6.65625 -0.847656 -6.554688 -0.609375 -6.359375 C -0.160156 -7.453125 0.238281 -8.410156 0.59375 -9.234375 C 0.957031 -10.054688 1.257812 -10.75 1.5 -11.3125 C 1.769531 -11.957031 2.007812 -12.523438 2.21875 -13.015625 C 3.539062 -16.117188 4.765625 -18.800781 5.890625 -21.0625 C 7.015625 -23.320312 8.050781 -25.242188 9 -26.828125 C 9.957031 -28.410156 10.832031 -29.6875 11.625 -30.65625 C 12.414062 -31.632812 13.128906 -32.394531 13.765625 -32.9375 C 14.410156 -33.488281 14.988281 -33.859375 15.5 -34.046875 C 16.019531 -34.234375 16.484375 -34.328125 16.890625 -34.328125 C 17.554688 -34.328125 18.117188 -34.175781 18.578125 -33.875 C 19.046875 -33.582031 19.3125 -33.082031 19.375 -32.375 C 19.425781 -31.675781 19.296875 -30.796875 18.984375 -29.734375 C 18.679688 -28.679688 18.257812 -27.5625 17.71875 -26.375 C 17.1875 -25.1875 16.5625 -23.984375 15.84375 -22.765625 C 15.132812 -21.554688 14.410156 -20.445312 13.671875 -19.4375 C 12.265625 -17.53125 10.988281 -15.945312 9.84375 -14.6875 C 8.695312 -13.4375 7.691406 -12.421875 6.828125 -11.640625 C 5.972656 -10.867188 5.253906 -10.296875 4.671875 -9.921875 C 4.097656 -9.554688 3.675781 -9.304688 3.40625 -9.171875 Z M 17.953125 -32.03125 C 17.941406 -32.289062 17.882812 -32.515625 17.78125 -32.703125 C 17.6875 -32.890625 17.488281 -32.984375 17.1875 -32.984375 C 17.007812 -32.984375 16.773438 -32.941406 16.484375 -32.859375 C 16.191406 -32.773438 15.851562 -32.597656 15.46875 -32.328125 C 15.082031 -32.054688 14.644531 -31.65625 14.15625 -31.125 C 13.675781 -30.59375 13.132812 -29.878906 12.53125 -28.984375 C 11.9375 -28.097656 11.285156 -26.992188 10.578125 -25.671875 C 9.878906 -24.359375 9.128906 -22.769531 8.328125 -20.90625 C 7.796875 -19.726562 7.179688 -18.296875 6.484375 -16.609375 C 5.796875 -14.921875 5.035156 -13.09375 4.203125 -11.125 C 4.910156 -11.625 5.65625 -12.25 6.4375 -13 C 7.21875 -13.75 8.003906 -14.570312 8.796875 -15.46875 C 9.585938 -16.375 10.367188 -17.332031 11.140625 -18.34375 C 11.921875 -19.351562 12.65625 -20.378906 13.34375 -21.421875 C 14.039062 -22.472656 14.679688 -23.515625 15.265625 -24.546875 C 15.847656 -25.578125 16.347656 -26.554688 16.765625 -27.484375 C 17.179688 -28.410156 17.492188 -29.265625 17.703125 -30.046875 C 17.921875 -30.828125 18.003906 -31.488281 17.953125 -32.03125 Z M 17.953125 -32.03125 "/></g></g></g><g fill="#000000" fill-opacity="1"><g transform="translate(454.896785, 374.202215)"><g/></g></g><g fill="#000000" fill-opacity="1"><g transform="translate(468.515128, 374.202215)"><g><path d="M 10.1875 -20.140625 C 10.1875 -19.835938 10.109375 -19.519531 9.953125 -19.1875 C 9.804688 -18.863281 9.613281 -18.570312 9.375 -18.3125 C 9.144531 -18.0625 8.882812 -17.851562 8.59375 -17.6875 C 8.3125 -17.519531 8.03125 -17.4375 7.75 -17.4375 C 7.488281 -17.4375 7.289062 -17.53125 7.15625 -17.71875 C 7.019531 -17.90625 6.953125 -18.132812 6.953125 -18.40625 C 6.953125 -18.65625 6.992188 -18.945312 7.078125 -19.28125 C 7.171875 -19.613281 7.304688 -19.925781 7.484375 -20.21875 C 7.671875 -20.507812 7.890625 -20.757812 8.140625 -20.96875 C 8.398438 -21.1875 8.695312 -21.296875 9.03125 -21.296875 C 9.351562 -21.296875 9.625 -21.175781 9.84375 -20.9375 C 10.070312 -20.695312 10.1875 -20.429688 10.1875 -20.140625 Z M 5.953125 -15.09375 C 5.753906 -14.707031 5.476562 -14.191406 5.125 -13.546875 C 4.769531 -12.898438 4.382812 -12.191406 3.96875 -11.421875 C 3.5625 -10.660156 3.144531 -9.859375 2.71875 -9.015625 C 2.300781 -8.179688 1.921875 -7.363281 1.578125 -6.5625 C 1.234375 -5.769531 0.957031 -5.023438 0.75 -4.328125 C 0.539062 -3.640625 0.4375 -3.050781 0.4375 -2.5625 C 0.4375 -2.125 0.523438 -1.828125 0.703125 -1.671875 C 0.878906 -1.515625 1.132812 -1.4375 1.46875 -1.4375 C 2.09375 -1.4375 2.695312 -1.640625 3.28125 -2.046875 C 3.875 -2.453125 4.460938 -2.984375 5.046875 -3.640625 C 5.628906 -4.296875 6.203125 -5.046875 6.765625 -5.890625 C 7.328125 -6.742188 7.890625 -7.601562 8.453125 -8.46875 L 9.265625 -7.828125 C 8.828125 -7.046875 8.332031 -6.207031 7.78125 -5.3125 C 7.226562 -4.414062 6.609375 -3.585938 5.921875 -2.828125 C 5.242188 -2.066406 4.492188 -1.4375 3.671875 -0.9375 C 2.859375 -0.4375 1.96875 -0.1875 1 -0.1875 C 0.09375 -0.1875 -0.597656 -0.457031 -1.078125 -1 C -1.566406 -1.539062 -1.8125 -2.242188 -1.8125 -3.109375 C -1.8125 -4.117188 -1.578125 -5.175781 -1.109375 -6.28125 C -0.640625 -7.394531 -0.0546875 -8.488281 0.640625 -9.5625 C 1.347656 -10.644531 2.113281 -11.6875 2.9375 -12.6875 C 3.757812 -13.6875 4.519531 -14.597656 5.21875 -15.421875 Z M 5.953125 -15.09375 "/></g></g></g><g fill="#000000" fill-opacity="1"><g transform="translate(476.958501, 374.202215)"><g><path d="M 7.28125 -17.828125 C 7.207031 -17.691406 7.109375 -17.539062 6.984375 -17.375 C 6.867188 -17.21875 6.753906 -17.035156 6.640625 -16.828125 C 6.523438 -16.628906 6.425781 -16.394531 6.34375 -16.125 C 6.257812 -15.851562 6.21875 -15.523438 6.21875 -15.140625 C 6.21875 -14.828125 6.296875 -14.394531 6.453125 -13.84375 C 6.617188 -13.300781 6.789062 -12.675781 6.96875 -11.96875 C 7.15625 -11.269531 7.328125 -10.507812 7.484375 -9.6875 C 7.640625 -8.863281 7.71875 -8.007812 7.71875 -7.125 C 7.71875 -5.84375 7.539062 -4.707031 7.1875 -3.71875 C 6.84375 -2.738281 6.382812 -1.898438 5.8125 -1.203125 C 6.988281 -1.835938 8.144531 -2.75 9.28125 -3.9375 C 10.414062 -5.125 11.5625 -6.632812 12.71875 -8.46875 L 13.484375 -7.78125 C 12.835938 -6.707031 12.097656 -5.644531 11.265625 -4.59375 C 10.441406 -3.539062 9.535156 -2.59375 8.546875 -1.75 C 7.566406 -0.914062 6.507812 -0.238281 5.375 0.28125 C 4.238281 0.800781 3.035156 1.0625 1.765625 1.0625 C 0.628906 1.0625 -0.320312 0.789062 -1.09375 0.25 C -1.875 -0.28125 -2.359375 -1.082031 -2.546875 -2.15625 L -1.71875 -2.3125 C -1.71875 -2.226562 -1.675781 -2.082031 -1.59375 -1.875 C -1.507812 -1.664062 -1.378906 -1.460938 -1.203125 -1.265625 C -1.023438 -1.066406 -0.78125 -0.890625 -0.46875 -0.734375 C -0.15625 -0.585938 0.226562 -0.515625 0.6875 -0.515625 C 1.289062 -0.515625 1.828125 -0.65625 2.296875 -0.9375 C 2.765625 -1.21875 3.171875 -1.582031 3.515625 -2.03125 C 3.867188 -2.488281 4.164062 -3.007812 4.40625 -3.59375 C 4.644531 -4.175781 4.835938 -4.773438 4.984375 -5.390625 C 5.128906 -6.015625 5.226562 -6.625 5.28125 -7.21875 C 5.34375 -7.8125 5.375 -8.347656 5.375 -8.828125 C 5.375 -9.316406 5.351562 -9.851562 5.3125 -10.4375 C 5.28125 -11.03125 5.238281 -11.59375 5.1875 -12.125 C 5.144531 -12.664062 5.101562 -13.132812 5.0625 -13.53125 C 5.03125 -13.9375 5.015625 -14.203125 5.015625 -14.328125 L 5.015625 -14.375 C 4.816406 -14.15625 4.582031 -13.84375 4.3125 -13.4375 C 4.039062 -13.03125 3.75 -12.582031 3.4375 -12.09375 C 3.125 -11.613281 2.8125 -11.125 2.5 -10.625 C 2.195312 -10.125 1.921875 -9.671875 1.671875 -9.265625 C 1.421875 -8.859375 1.210938 -8.519531 1.046875 -8.25 C 0.890625 -7.988281 0.8125 -7.847656 0.8125 -7.828125 L 0 -8.46875 C 0.0078125 -8.476562 0.195312 -8.800781 0.5625 -9.4375 C 0.925781 -10.082031 1.40625 -10.890625 2 -11.859375 C 2.601562 -12.835938 3.28125 -13.921875 4.03125 -15.109375 C 4.789062 -16.296875 5.570312 -17.453125 6.375 -18.578125 Z M 7.28125 -17.828125 "/></g></g></g><g fill="#000000" fill-opacity="1"><g transform="translate(489.668954, 374.202215)"><g><path d="M 16.4375 -33.03125 C 16.96875 -33.03125 17.410156 -32.898438 17.765625 -32.640625 C 18.117188 -32.390625 18.296875 -31.925781 18.296875 -31.25 C 18.296875 -30.769531 18.203125 -30.203125 18.015625 -29.546875 C 17.828125 -28.898438 17.566406 -28.195312 17.234375 -27.4375 C 16.910156 -26.675781 16.53125 -25.875 16.09375 -25.03125 C 15.65625 -24.1875 15.179688 -23.347656 14.671875 -22.515625 C 14.171875 -21.691406 13.644531 -20.882812 13.09375 -20.09375 C 12.539062 -19.300781 11.988281 -18.578125 11.4375 -17.921875 C 10.351562 -16.566406 9.410156 -15.425781 8.609375 -14.5 C 7.816406 -13.582031 7.132812 -12.800781 6.5625 -12.15625 C 5.988281 -11.507812 5.503906 -10.984375 5.109375 -10.578125 C 4.710938 -10.179688 4.363281 -9.835938 4.0625 -9.546875 C 3.757812 -9.265625 3.476562 -9.003906 3.21875 -8.765625 C 2.96875 -8.535156 2.703125 -8.28125 2.421875 -8 C 2.304688 -7.414062 2.25 -6.863281 2.25 -6.34375 C 2.257812 -5.820312 2.265625 -5.34375 2.265625 -4.90625 C 2.265625 -3.582031 2.476562 -2.601562 2.90625 -1.96875 C 3.332031 -1.332031 3.929688 -1.015625 4.703125 -1.015625 C 5.210938 -1.015625 5.726562 -1.144531 6.25 -1.40625 C 6.769531 -1.675781 7.285156 -2.023438 7.796875 -2.453125 C 8.316406 -2.878906 8.816406 -3.359375 9.296875 -3.890625 C 9.785156 -4.429688 10.242188 -4.976562 10.671875 -5.53125 C 11.109375 -6.082031 11.5 -6.613281 11.84375 -7.125 C 12.195312 -7.644531 12.503906 -8.09375 12.765625 -8.46875 L 13.59375 -7.828125 C 13.550781 -7.773438 13.40625 -7.539062 13.15625 -7.125 C 12.90625 -6.707031 12.578125 -6.203125 12.171875 -5.609375 C 11.765625 -5.015625 11.28125 -4.378906 10.71875 -3.703125 C 10.15625 -3.035156 9.546875 -2.410156 8.890625 -1.828125 C 8.242188 -1.253906 7.5625 -0.78125 6.84375 -0.40625 C 6.125 -0.03125 5.394531 0.15625 4.65625 0.15625 C 4.03125 0.15625 3.429688 0.0390625 2.859375 -0.1875 C 2.296875 -0.425781 1.800781 -0.796875 1.375 -1.296875 C 0.945312 -1.804688 0.597656 -2.453125 0.328125 -3.234375 C 0.0664062 -4.023438 -0.0625 -4.972656 -0.0625 -6.078125 C -0.0625 -7.460938 0.0976562 -8.90625 0.421875 -10.40625 C 0.742188 -11.914062 1.1875 -13.429688 1.75 -14.953125 C 2.3125 -16.472656 2.96875 -17.972656 3.71875 -19.453125 C 4.476562 -20.941406 5.285156 -22.351562 6.140625 -23.6875 C 6.992188 -25.03125 7.882812 -26.269531 8.8125 -27.40625 C 9.75 -28.550781 10.664062 -29.539062 11.5625 -30.375 C 12.46875 -31.207031 13.335938 -31.859375 14.171875 -32.328125 C 15.003906 -32.796875 15.757812 -33.03125 16.4375 -33.03125 Z M 2.84375 -10.015625 C 4.125 -11.347656 5.363281 -12.695312 6.5625 -14.0625 C 7.769531 -15.4375 8.898438 -16.789062 9.953125 -18.125 C 11.003906 -19.46875 11.96875 -20.769531 12.84375 -22.03125 C 13.726562 -23.300781 14.476562 -24.492188 15.09375 -25.609375 C 15.71875 -26.734375 16.203125 -27.753906 16.546875 -28.671875 C 16.898438 -29.597656 17.078125 -30.394531 17.078125 -31.0625 C 17.078125 -31.1875 17.015625 -31.347656 16.890625 -31.546875 C 16.773438 -31.753906 16.632812 -31.859375 16.46875 -31.859375 C 15.988281 -31.859375 15.363281 -31.546875 14.59375 -30.921875 C 13.820312 -30.304688 12.984375 -29.460938 12.078125 -28.390625 C 11.179688 -27.328125 10.253906 -26.082031 9.296875 -24.65625 C 8.335938 -23.238281 7.429688 -21.71875 6.578125 -20.09375 C 5.734375 -18.476562 4.976562 -16.804688 4.3125 -15.078125 C 3.644531 -13.347656 3.15625 -11.660156 2.84375 -10.015625 Z M 2.84375 -10.015625 "/></g></g></g><g fill="#000000" fill-opacity="1"><g transform="translate(502.42479, 374.202215)"><g><path d="M 1.71875 -5.171875 C 1.695312 -4.992188 1.675781 -4.8125 1.65625 -4.625 C 1.644531 -4.445312 1.640625 -4.269531 1.640625 -4.09375 C 1.640625 -3.539062 1.71875 -3.019531 1.875 -2.53125 C 2.03125 -2.039062 2.265625 -1.609375 2.578125 -1.234375 C 2.890625 -0.867188 3.273438 -0.578125 3.734375 -0.359375 C 4.191406 -0.148438 4.71875 -0.046875 5.3125 -0.046875 C 7.289062 -0.046875 9.203125 -0.71875 11.046875 -2.0625 C 12.898438 -3.414062 14.742188 -5.550781 16.578125 -8.46875 L 17.34375 -7.78125 C 16.34375 -6.125 15.328125 -4.722656 14.296875 -3.578125 C 13.273438 -2.429688 12.25 -1.503906 11.21875 -0.796875 C 10.195312 -0.0859375 9.195312 0.421875 8.21875 0.734375 C 7.238281 1.054688 6.300781 1.21875 5.40625 1.21875 C 4.75 1.21875 4.054688 1.128906 3.328125 0.953125 C 2.609375 0.773438 1.941406 0.472656 1.328125 0.046875 C 0.710938 -0.378906 0.207031 -0.945312 -0.1875 -1.65625 C -0.59375 -2.363281 -0.796875 -3.25 -0.796875 -4.3125 C -0.796875 -5.445312 -0.601562 -6.539062 -0.21875 -7.59375 C 0.164062 -8.644531 0.664062 -9.625 1.28125 -10.53125 C 1.90625 -11.4375 2.617188 -12.265625 3.421875 -13.015625 C 4.222656 -13.765625 5.035156 -14.40625 5.859375 -14.9375 C 6.691406 -15.46875 7.5 -15.878906 8.28125 -16.171875 C 9.070312 -16.472656 9.769531 -16.625 10.375 -16.625 C 10.769531 -16.625 11.171875 -16.5625 11.578125 -16.4375 C 11.984375 -16.3125 12.347656 -16.117188 12.671875 -15.859375 C 13.003906 -15.609375 13.269531 -15.269531 13.46875 -14.84375 C 13.675781 -14.425781 13.78125 -13.921875 13.78125 -13.328125 C 13.78125 -12.523438 13.59375 -11.769531 13.21875 -11.0625 C 12.851562 -10.363281 12.359375 -9.710938 11.734375 -9.109375 C 11.117188 -8.515625 10.398438 -7.976562 9.578125 -7.5 C 8.765625 -7.019531 7.910156 -6.613281 7.015625 -6.28125 C 6.117188 -5.957031 5.21875 -5.695312 4.3125 -5.5 C 3.40625 -5.300781 2.539062 -5.191406 1.71875 -5.171875 Z M 1.90625 -6.15625 C 2.914062 -6.257812 3.867188 -6.46875 4.765625 -6.78125 C 5.660156 -7.101562 6.476562 -7.492188 7.21875 -7.953125 C 7.957031 -8.421875 8.617188 -8.925781 9.203125 -9.46875 C 9.785156 -10.007812 10.273438 -10.5625 10.671875 -11.125 C 11.066406 -11.6875 11.367188 -12.222656 11.578125 -12.734375 C 11.785156 -13.253906 11.890625 -13.71875 11.890625 -14.125 C 11.890625 -14.53125 11.78125 -14.851562 11.5625 -15.09375 C 11.34375 -15.34375 11.082031 -15.46875 10.78125 -15.46875 C 10.113281 -15.46875 9.363281 -15.226562 8.53125 -14.75 C 7.695312 -14.269531 6.863281 -13.609375 6.03125 -12.765625 C 5.207031 -11.929688 4.425781 -10.945312 3.6875 -9.8125 C 2.957031 -8.675781 2.363281 -7.457031 1.90625 -6.15625 Z M 1.90625 -6.15625 "/></g></g></g><g fill="#000000" fill-opacity="1"><g transform="translate(518.993786, 374.202215)"><g><path d="M 2.71875 -7.96875 C 3.507812 -9.0625 4.347656 -10.109375 5.234375 -11.109375 C 6.117188 -12.117188 7.015625 -13.015625 7.921875 -13.796875 C 8.828125 -14.578125 9.742188 -15.203125 10.671875 -15.671875 C 11.597656 -16.140625 12.5 -16.375 13.375 -16.375 C 13.914062 -16.375 14.359375 -16.289062 14.703125 -16.125 C 15.054688 -15.957031 15.332031 -15.742188 15.53125 -15.484375 C 15.738281 -15.222656 15.882812 -14.929688 15.96875 -14.609375 C 16.050781 -14.285156 16.09375 -13.960938 16.09375 -13.640625 C 16.09375 -13.191406 16.003906 -12.703125 15.828125 -12.171875 C 15.660156 -11.640625 15.398438 -11.101562 15.046875 -10.5625 C 14.691406 -10.03125 14.238281 -9.515625 13.6875 -9.015625 C 13.144531 -8.523438 12.492188 -8.085938 11.734375 -7.703125 C 11.898438 -7.304688 11.984375 -6.828125 11.984375 -6.265625 C 11.984375 -5.921875 11.9375 -5.566406 11.84375 -5.203125 C 11.757812 -4.847656 11.660156 -4.5 11.546875 -4.15625 C 11.441406 -3.8125 11.34375 -3.457031 11.25 -3.09375 C 11.164062 -2.738281 11.125 -2.378906 11.125 -2.015625 C 11.125 -1.835938 11.132812 -1.664062 11.15625 -1.5 C 11.175781 -1.332031 11.21875 -1.179688 11.28125 -1.046875 C 11.351562 -0.910156 11.460938 -0.800781 11.609375 -0.71875 C 11.753906 -0.632812 11.957031 -0.59375 12.21875 -0.59375 C 12.519531 -0.59375 12.863281 -0.71875 13.25 -0.96875 C 13.644531 -1.21875 14.0625 -1.546875 14.5 -1.953125 C 14.945312 -2.359375 15.398438 -2.828125 15.859375 -3.359375 C 16.316406 -3.898438 16.765625 -4.46875 17.203125 -5.0625 C 17.648438 -5.65625 18.078125 -6.242188 18.484375 -6.828125 C 18.890625 -7.410156 19.257812 -7.957031 19.59375 -8.46875 L 20.4375 -7.828125 C 19.664062 -6.679688 18.910156 -5.582031 18.171875 -4.53125 C 17.441406 -3.488281 16.707031 -2.570312 15.96875 -1.78125 C 15.238281 -1 14.492188 -0.375 13.734375 0.09375 C 12.972656 0.5625 12.191406 0.796875 11.390625 0.796875 C 11.078125 0.796875 10.75 0.75 10.40625 0.65625 C 10.070312 0.5625 9.765625 0.410156 9.484375 0.203125 C 9.203125 0.00390625 8.96875 -0.257812 8.78125 -0.59375 C 8.601562 -0.925781 8.515625 -1.332031 8.515625 -1.8125 C 8.515625 -2.382812 8.660156 -3.0625 8.953125 -3.84375 C 9.203125 -4.5625 9.382812 -5.164062 9.5 -5.65625 C 9.625 -6.15625 9.695312 -6.570312 9.71875 -6.90625 C 9.394531 -6.820312 9.054688 -6.75 8.703125 -6.6875 C 8.347656 -6.632812 8.015625 -6.609375 7.703125 -6.609375 C 7.535156 -6.609375 7.351562 -6.625 7.15625 -6.65625 C 6.957031 -6.695312 6.773438 -6.765625 6.609375 -6.859375 C 6.441406 -6.953125 6.300781 -7.066406 6.1875 -7.203125 C 6.070312 -7.347656 6.015625 -7.535156 6.015625 -7.765625 C 6.015625 -7.992188 6.085938 -8.207031 6.234375 -8.40625 C 6.378906 -8.613281 6.578125 -8.796875 6.828125 -8.953125 C 7.078125 -9.117188 7.375 -9.242188 7.71875 -9.328125 C 8.0625 -9.421875 8.445312 -9.46875 8.875 -9.46875 C 9.664062 -9.46875 10.34375 -9.253906 10.90625 -8.828125 C 11.445312 -9.253906 11.894531 -9.71875 12.25 -10.21875 C 12.601562 -10.71875 12.878906 -11.203125 13.078125 -11.671875 C 13.273438 -12.140625 13.410156 -12.554688 13.484375 -12.921875 C 13.554688 -13.296875 13.59375 -13.578125 13.59375 -13.765625 C 13.59375 -14.265625 13.503906 -14.609375 13.328125 -14.796875 C 13.148438 -14.984375 12.929688 -15.078125 12.671875 -15.078125 C 12.179688 -15.078125 11.640625 -14.914062 11.046875 -14.59375 C 10.453125 -14.28125 9.832031 -13.847656 9.1875 -13.296875 C 8.539062 -12.753906 7.878906 -12.128906 7.203125 -11.421875 C 6.535156 -10.710938 5.878906 -9.960938 5.234375 -9.171875 C 4.585938 -8.390625 3.960938 -7.59375 3.359375 -6.78125 C 2.765625 -5.976562 2.21875 -5.222656 1.71875 -4.515625 C 1.269531 -3.765625 0.867188 -3.0625 0.515625 -2.40625 C 0.160156 -1.757812 -0.132812 -1.195312 -0.375 -0.71875 C -0.625 -0.25 -0.816406 0.101562 -0.953125 0.34375 C -1.085938 0.582031 -1.164062 0.664062 -1.1875 0.59375 L -3.421875 0 C -1.640625 -4.070312 0.164062 -8.144531 2 -12.21875 C 3.832031 -16.289062 5.757812 -20.40625 7.78125 -24.5625 C 8.082031 -25.164062 8.425781 -25.828125 8.8125 -26.546875 C 9.207031 -27.265625 9.625 -27.984375 10.0625 -28.703125 C 10.507812 -29.429688 10.988281 -30.132812 11.5 -30.8125 C 12.007812 -31.488281 12.53125 -32.085938 13.0625 -32.609375 C 13.601562 -33.140625 14.148438 -33.554688 14.703125 -33.859375 C 15.265625 -34.171875 15.828125 -34.328125 16.390625 -34.328125 C 16.984375 -34.328125 17.460938 -34.160156 17.828125 -33.828125 C 18.203125 -33.492188 18.390625 -32.960938 18.390625 -32.234375 C 18.390625 -31.242188 18.117188 -30.03125 17.578125 -28.59375 C 17.046875 -27.164062 16.25 -25.648438 15.1875 -24.046875 C 14.125 -22.441406 12.800781 -20.816406 11.21875 -19.171875 C 9.644531 -17.535156 7.804688 -16.007812 5.703125 -14.59375 Z M 6.703125 -16.78125 C 8.535156 -18.195312 10.113281 -19.660156 11.4375 -21.171875 C 12.757812 -22.679688 13.847656 -24.128906 14.703125 -25.515625 C 15.554688 -26.910156 16.179688 -28.203125 16.578125 -29.390625 C 16.984375 -30.578125 17.1875 -31.570312 17.1875 -32.375 C 17.1875 -32.601562 17.125 -32.785156 17 -32.921875 C 16.882812 -33.054688 16.695312 -33.125 16.4375 -33.125 C 15.875 -33.125 15.296875 -32.847656 14.703125 -32.296875 C 14.117188 -31.742188 13.453125 -30.832031 12.703125 -29.5625 C 11.953125 -28.289062 11.09375 -26.609375 10.125 -24.515625 C 9.15625 -22.429688 8.015625 -19.851562 6.703125 -16.78125 Z M 9.609375 -7.921875 C 9.523438 -8.085938 9.394531 -8.234375 9.21875 -8.359375 C 9.050781 -8.492188 8.863281 -8.5625 8.65625 -8.5625 C 8.21875 -8.5625 7.832031 -8.46875 7.5 -8.28125 C 7.164062 -8.101562 7 -7.929688 7 -7.765625 C 7 -7.640625 7.066406 -7.554688 7.203125 -7.515625 C 7.347656 -7.484375 7.484375 -7.46875 7.609375 -7.46875 C 8.003906 -7.46875 8.367188 -7.515625 8.703125 -7.609375 C 9.035156 -7.703125 9.335938 -7.804688 9.609375 -7.921875 Z M 9.609375 -7.921875 "/></g></g></g></svg>